# xmcd
#
# Track frame offsets: 
#        150
#        11744
#        23516
#        37965
#        48421
#        60488
#        72306
#        85061
#        95961
#        105940
#        118087
#        129945
#        140487
#        154137
#        168932
#        175390
#        186877
#        196415
#        209492
#        220016
#
# Disc length: 3108 seconds
#
# Revision: 0
# Processed by: cddbd v1.5.2PL0 Copyright (c) Steve Scherf et al.
# Submitted via: ExactAudioCopy v1.3
#
DISCID=140c2214
DTITLE=Various Artist - Country Girls The Absolutely Essential
DYEAR=2015
DGENRE=Country
TTITLE0=Kitty Wells - It Wasnt God Who Made Honky Tonk Angels
TTITLE1=Patsy Cline - Walkin After Midnight
TTITLE2=The Carter Family - Wildwood Flower
TTITLE3=Dolly Parton - Sure Gonna Hurt
TTITLE4=Brenda Lee - Im Sorry
TTITLE5=Goldie Hill - Let The Stars get In My Eyes
TTITLE6=Patsy Cline - I Fall To Pieces
TTITLE7=The Maddox Brothers and Rose - Honky Tonkin
TTITLE8=Carolyn Bradshaw - Oh I Like It
TTITLE9=Loretta Lynn - Success
TTITLE10=Kitty Wells - Heartbreak U.S.A.
TTITLE11=Jan Howard - The One You Slip Around With
TTITLE12=Marion Worth - I Think I Know 
TTITLE13=Dottie West - My Big Johm
TTITLE14=June Carter - Take Me Back To Tulsa
TTITLE15=Patti Page - Go On Home
TTITLE16=Skeeter Davis - Am I That Easy To Forget
TTITLE17=The Carter Family - Bury Me Under The Weeping Willow Tree
TTITLE18=Goldie Hill - Why Talk To My Heart
TTITLE19=Patti Page - Allegheny Moon
EXTD=
EXTT0=
EXTT1=
EXTT2=
EXTT3=
EXTT4=
EXTT5=
EXTT6=
EXTT7=
EXTT8=
EXTT9=
EXTT10=
EXTT11=
EXTT12=
EXTT13=
EXTT14=
EXTT15=
EXTT16=
EXTT17=
EXTT18=
EXTT19=
PLAYORDER=
